<svg version="1.1" id="Capa_1" xmlns="http://www.w3.org/2000/svg" x="0" y="0" width="31.559" height="31.559" viewBox="0 0 31.559 31.559" xml:space="preserve"><path d="M16.646 16.945c.959-.457 1.272-1.801.702-2.995-.571-1.198-1.812-1.801-2.771-1.344-.959.457-1.272 1.801-.701 2.999.571 1.196 1.812 1.799 2.77 1.34z"/><path d="M19.52 9.796c.922 5.771-3.185 10.097-3.185 10.097s-3.386-5.729-9.08-7.458c11.076 8.099 4.772 18.196 4.772 18.196h3.206c.001 0 7.453-12.861 4.287-20.835zm-6.251.659a5.377 5.377 0 01-.188-.298c-.293-.506-.427-.976-.427-.976s.338.354.631.857c.061.107.114.212.163.312.046-.241.1-.736-.134-1.144-.323-.559-1.067-.733-1.067-.733s-.222.732.101 1.292c.234.408.69.609.921.69z"/><path d="M20.622 14.7c.186.16.588.454 1.057.454.646 0 1.168-.559 1.168-.559s-.521-.558-1.168-.558c-.469 0-.871.294-1.057.454a4.836 4.836 0 011.413.102s-.477.118-1.061.117a3.08 3.08 0 01-.352-.01zm-2.346-4.66c.291-.506.631-.859.631-.859s-.135.472-.428.978a4.517 4.517 0 01-.189.298c.234-.081.689-.283.922-.688.324-.561.104-1.294.104-1.294s-.746.177-1.068.734c-.234.406-.182.9-.135 1.144.046-.101.1-.206.163-.313zm-2.757-3.046c0-1.301.261-2.354.261-2.354s.262 1.055.262 2.354c0 .275-.013.535-.033.781.358-.413 1.011-1.308 1.011-2.352 0-1.436-1.24-2.599-1.24-2.599s-1.24 1.163-1.24 2.599c0 1.044.653 1.938 1.01 2.352a10.615 10.615 0 01-.031-.781zm-8.302 4.09c.905.522 2.005.403 2.542.3a9.496 9.496 0 01-.692-.362C7.941 10.373 7.159 9.62 7.159 9.62s1.043.3 2.169.95c.238.138.457.278.661.419-.178-.518-.625-1.53-1.531-2.052-1.242-.719-2.87-.227-2.87-.227s.386 1.657 1.629 2.374zm17.125 7.023c-.904-.521-2.004-.404-2.541-.301.223.105.455.227.693.363 1.125.65 1.908 1.402 1.908 1.402s-1.043-.299-2.17-.949a9.958 9.958 0 01-.66-.42c.178.518.625 1.529 1.529 2.051 1.242.719 2.871.227 2.871.227s-.388-1.656-1.63-2.373zm-14.355.098c-.204.139-.422.279-.66.418-1.126.648-2.17.951-2.17.951s.782-.754 1.908-1.404c.239-.139.471-.256.693-.363-.536-.104-1.638-.223-2.542.301-1.243.717-1.631 2.373-1.631 2.373s1.628.492 2.871-.225c.906-.524 1.353-1.535 1.531-2.051zm11.586-7.22c.203-.139.422-.279.662-.417 1.125-.65 2.168-.95 2.168-.95s-.781.753-1.908 1.402a9.315 9.315 0 01-.691.362c.535.104 1.637.224 2.539-.3 1.244-.718 1.631-2.374 1.631-2.374s-1.627-.491-2.869.227c-.907.522-1.355 1.534-1.532 2.05zM10.941 6.831a14.136 14.136 0 01-.56-.887c-.872-1.508-1.275-2.908-1.275-2.908s1.01 1.048 1.881 2.56c.185.318.344.629.486.928.14-.719.299-2.194-.401-3.406C10.11 1.451 7.89.931 7.89.931s-.659 2.182.303 3.848c.7 1.213 2.058 1.812 2.748 2.052zm9.679 15.53c.186.273.377.566.561.885.873 1.514 1.275 2.91 1.275 2.91s-1.01-1.049-1.883-2.559c-.184-.32-.344-.631-.486-.928-.137.719-.297 2.191.402 3.404.963 1.666 3.182 2.188 3.182 2.188s.662-2.184-.301-3.85c-.702-1.212-2.059-1.811-2.75-2.05zM5.588 14.947c-1.743 0-3.156-.352-3.156-.352s1.413-.352 3.156-.352c.37 0 .719.02 1.048.044-.553-.48-1.751-1.356-3.153-1.356C1.56 12.932 0 14.595 0 14.595s1.561 1.664 3.483 1.663c1.401 0 2.599-.875 3.152-1.354-.329.025-.679.043-1.047.043zm22.489-2.012c-1.4 0-2.598.872-3.152 1.354.33-.025.68-.044 1.047-.043 1.744 0 3.156.351 3.156.351s-1.412.352-3.154.352c-.369 0-.719-.019-1.049-.043.553.479 1.752 1.354 3.152 1.354 1.924 0 3.482-1.661 3.482-1.661s-1.56-1.666-3.482-1.664zM10.988 23.598c-.872 1.51-1.882 2.559-1.882 2.559s.402-1.4 1.274-2.91c.186-.318.375-.611.562-.887-.692.24-2.05.84-2.75 2.053-.963 1.666-.303 3.85-.303 3.85s2.221-.52 3.183-2.186c.701-1.213.542-2.689.403-3.406-.145.296-.304.604-.487.927zm9.585-18.005c.871-1.51 1.881-2.558 1.881-2.558s-.402 1.399-1.275 2.908a14.53 14.53 0 01-.559.886c.691-.239 2.049-.839 2.748-2.051.963-1.666.303-3.851.303-3.851s-2.219.521-3.182 2.187c-.703 1.213-.543 2.688-.404 3.406.144-.295.302-.606.488-.927z"/></svg>